<?xml version="1.0" encoding="UTF-8"?><svg xmlns="http://www.w3.org/2000/svg" viewBox="0 0 465.78 363.56"><defs><style>.cls-1{fill:#f6f7fa;}.cls-1,.cls-2,.cls-3,.cls-4,.cls-5,.cls-6,.cls-7,.cls-8,.cls-9,.cls-10,.cls-11,.cls-12,.cls-13,.cls-14,.cls-15,.cls-16,.cls-17,.cls-18,.cls-19,.cls-20{stroke-width:0px;}.cls-21{isolation:isolate;}.cls-2{fill:#ffcb1e;}.cls-3{fill:#bdc4d7;}.cls-3,.cls-15,.cls-22{mix-blend-mode:multiply;}.cls-4,.cls-23{fill:#fff;}.cls-5{fill:#eddfca;}.cls-6{fill:#d1c5b4;}.cls-7{fill:#fff1d8;}.cls-8{fill:#dee1eb;}.cls-9{fill:#ff9d8c;}.cls-10{fill:#d9dee8;}.cls-11{fill:#464646;}.cls-12{fill:#8e9bbb;}.cls-13{fill:#8593b6;}.cls-14{fill:#00ac39;}.cls-15,.cls-17{opacity:.17;}.cls-15,.cls-17,.cls-19{fill:#eaeaea;}.cls-16{fill:#818fb3;}.cls-23{font-family:Quicksand-Bold, 'Quicksand Bold';font-size:12px;font-weight:700;}.cls-18{fill:#223a7a;}.cls-20{fill:#004f86;}</style></defs><g class="cls-21"><g id="BACKGROUND"><path class="cls-17" d="M90.77,330.54s-54.62-38.9-70.34-105.1C4.7,159.23,28.7,78.95,74.22,38.4c45.52-40.55,127.45-13.24,163.86,20.69l36.41,33.93s34.76,19.03,80.28,17.38c45.52-1.66,86.07,60.41,96.83,109.24,10.76,48.83-14.9,113.38-14.9,113.38l-345.93-2.48Z"/><path class="cls-15" d="M65.94,340.47s-38.07-20.69-48-68.69c-9.93-48,33.1-91.86,37.24-115.86,4.14-24-4.97-53.79,33.1-76.97,38.07-23.17,105.93-14.9,131.59-20.69,25.66-5.79,55.45-45.52,106.76-36.41,51.31,9.1,100.97,36.41,103.45,96,2.48,59.59-16.55,61.24,2.48,93.52,19.03,32.28,26.48,54.62,17.38,87.72-9.1,33.1-28.14,42.21-28.14,42.21l-355.86-.83Z"/></g><g id="OBJECTS"><rect class="cls-2" x="368.15" y="180.4" width="54.62" height="32.28" rx="5" ry="5"/><polygon class="cls-2" points="395.46 225.3 402.53 208.54 388.39 208.54 395.46 225.3"/><polygon class="cls-4" points="395.29 191 408.06 191 408.06 192.87 414.33 189.26 408.06 185.65 408.06 187.52 395.29 187.52 395.29 191"/><polygon class="cls-4" points="414.33 198.34 401.55 198.34 401.55 196.47 395.29 200.08 401.55 203.69 401.55 201.83 414.33 201.83 414.33 198.34"/><path class="cls-4" d="M387.45,201.63l-.61.22s-1.9-2.16-2.88-4.52c-.98-2.36-1.02-5.23-1.02-5.23l.44-.19-2.7-6.46c-.48.38-.94.86-1.31,1.49-1.53,2.58-1.38,6.55.16,10.42,1.54,3.87,3.18,7.33,6.18,9.5,1.77,1.28,3.29,1.51,4.46,1.32l-2.73-6.54Z"/><path class="cls-4" d="M389.39,200.87l-.84.31,2.76,6.62c.31-.1.59-.23.84-.36.71-.39,1.03-1.25.73-2.01l-1.44-3.64c-.32-.81-1.23-1.21-2.04-.92Z"/><path class="cls-4" d="M382.8,184.31c-.34.12-.71.29-1.08.51l2.76,6.6.93-.39c.81-.34,1.19-1.25.88-2.07l-1.45-3.72c-.31-.81-1.22-1.23-2.03-.93Z"/><path class="cls-11" d="M132.53,318.54v-74.48s-.83-20.07,9.72-25.86c10.55-5.79,55.03-2.69,55.03-2.69v103.03h-64.76Z"/><path class="cls-9" d="M211.18,145.78s-2.69,22.55-3.72,24.41l-1.03,1.86-5.17,3.52s9.93,14.07,22.14,16.34c12.21,2.28,11.17-4.97,11.17-4.97l-1.86-3.93,2.48-21.52s-22.14-10.14-24-15.72Z"/><path class="cls-4" d="M194.84,177.44l8.07-3.52s5.17,8.48,17.17,13.45,12.21,2.07,12.83,0c.62-2.07-.21-4.34-.21-4.34l.89-7.24,4.8,1.6,16.66,134.75-42.83,2.07-17.38-136.76Z"/><path class="cls-20" d="M234.36,175.92s2.9,6.69,5.59,22.41c2.69,15.72,5.17,42.21,5.79,60.41s1.03,59.79,1.03,59.79c0,0,53.38,0,54,0s4.34-20.48,4.34-20.48c0,0-23.59-20.21-24.83-23.52-.83-2.21-.41-43.1-3.93-61.93-3.52-18.83-8.07-22.62-17.59-27.31-9.84-4.85-24.41-9.38-24.41-9.38Z"/><path class="cls-13" d="M262.49,294.83c-.28,0-.5-.22-.5-.5,0-1.48-.26-22.5-.52-42.82-.25-20.33-.52-41.35-.52-42.83,0-.28.22-.5.5-.5s.5.22.5.5c0,1.48.26,22.5.52,42.82.25,20.33.52,41.35.52,42.83,0,.28-.22.5-.5.5Z"/><path class="cls-20" d="M154.91,289.78l-.41,28.76h62.9s2.69-24.41,1.66-26.69c-1.03-2.28-64.14-2.07-64.14-2.07Z"/><g class="cls-22"><path class="cls-12" d="M224.91,169.57c2.56,2.07,6.07,3.72,8.8,4.73l1.48-12.8s-16.63-7.62-22.27-13.28c1.18,6.44,4.08,14.97,11.99,21.35Z"/></g><path class="cls-9" d="M254.63,103.78s4.34,7.45,5.17,16.55c.83,9.1,0,32.48-7.45,42.41-7.45,9.93-22.97,7.03-30,1.03-6.46-5.51-12.83-11.59-14.48-23.59-1.66-12,3.52-34.76,18.21-39.52,14.69-4.76,28.55,3.1,28.55,3.1Z"/><path class="cls-9" d="M273.3,305.53s-.73,0-1.84-.03c-.26-.01-.55,0-.85-.01-1.07-.03-2.37-.06-3.68-.1-.29-.01-.59-.02-.88-.03-1.3-.03-2.41.13-3.45.07h-.03c-.22,0-.54.02-.8.03-.13.01-.25.02-.33,0-.6-.11-.72-.25-1.37-.54-.84-.38-12.21-2.92-21.46-2.86-9.24.04-17.53.67-18.88-.46-1.36-1.15-2.18-12.76,5.71-13.52l9.7,3.68s22.15-2.63,30.27,3.36c8.14,5.99,7.89,10.4,7.89,10.4Z"/><path class="cls-18" d="M262.57,305.43c-.22-.01-.54.02-.8.03-.2-.32-.62-.9-.85-1.14-2.5-2.55-8.54-4.2-10.73-4.73-.2-.05-.33-.25-.28-.45.04-.2.25-.32.46-.28,3.19.77,9.96,2.74,11.88,5.97.06.09.22.4.32.6Z"/><path class="cls-18" d="M266.93,305.39c-.29,0-.59-.01-.88-.03-2.73-4.98-7.2-6.41-12.71-8.18l-.33-.11c-.19-.06-.3-.28-.24-.48.06-.19.27-.3.48-.24l.32.11c5.84,1.87,10.53,3.38,13.37,8.93Z"/><path class="cls-18" d="M271.46,305.5c-.26,0-.55,0-.85-.01-1.66-3.48-7.14-9.31-14.38-10.66-.21-.04-.34-.23-.31-.44.04-.2.24-.33.44-.3,7.47,1.4,13.49,7.5,15.11,11.41Z"/><path class="cls-11" d="M212.84,129.95s4.55-2.17,7.76-8.28c3.21-6.1,2.79-11.59,2.79-11.59,0,0,5.79-.93,14.48,1.66,8.69,2.59,19.03,6.1,27.72,1.14,8.69-4.97,8.69-12.93,4.45-16.24-4.75-3.71-14.17-1.45-14.17-1.45,0,0,3.62-3.52,1.66-5.59-1.97-2.07-9.1.62-9.1.62,0,0-8.69-6.93-25.14-6.1-16.45.83-24.31,12.31-25.24,25.14-.93,12.83,3.72,25.66,3.72,25.66l11.07-4.97Z"/><g class="cls-22"><path class="cls-12" d="M246.21,133.06c-.93,2.3-.91,4.97-1.14,7.4-.18,1.9-.53,4.11,1.21,5.39.83.61,4.76,2.26,2.74,3.6-.77.51-2.06.37-2.94.33-.6-.03-1.21-.05-1.82-.1-.65-.05-1.28-.24-1.93-.25-.38,0-.5.5-.19.7,1.04.65,2.58.86,3.79.9,1.22.05,2.04,0,3.14-.55.67-.33,1.33-.81,1.43-1.61.12-.9-.56-1.71-1.24-2.22-.78-.58-1.74-.85-2.53-1.42-1.1-.78-1.01-2.11-.93-3.33.19-2.94.86-5.83,1.12-8.76.04-.45-.58-.45-.72-.1h0Z"/></g><path class="cls-11" d="M254.67,139.94c-.31,1.74-1.58,2.98-2.83,2.76-1.26-.22-2.02-1.82-1.72-3.56.31-1.74,1.58-2.98,2.83-2.76,1.26.22,2.02,1.82,1.72,3.56Z"/><path class="cls-11" d="M238.83,138.56c-.28,1.88-1.61,3.24-2.96,3.04s-2.23-1.89-1.95-3.77c.28-1.88,1.61-3.24,2.96-3.04s2.23,1.89,1.95,3.77Z"/><path class="cls-11" d="M250.98,132.75c.97.16,1.94,0,2.92.07.23.02.47.05.7.07.17.02-.31-.05-.08-.01.05,0,.1.02.15.02.12.02.24.05.36.08.21.05.41.13.62.17.19.04.4.09.59.08.11-.01.21-.03.32-.04-.07.01-.13.02-.2.04,0,.02.36-.03.4-.04.55-.13.9-.77.74-1.31-.04-.16-.11-.29-.21-.42-.04-.05-.08-.11-.13-.16.04.04.08.09.12.13-.04-.06-.08-.11-.13-.17-.05-.09-.13-.17-.22-.22-.08-.06-.15-.12-.23-.18-.26-.18-.59-.28-.9-.36-.58-.15-1.18-.22-1.78-.23-.59,0-1.18.06-1.76.14-.52.07-1.09.25-1.51.56-.32.24-.52.55-.47.97.05.35.32.75.7.81h0Z"/><path class="cls-11" d="M239.94,129.99c-.13-.08-.27-.15-.4-.21-.12-.05-.44-.22-.2-.09-.09-.05-.18-.1-.27-.14-.4-.2-.82-.34-1.25-.45-.94-.24-1.94-.3-2.91-.2-1.03.11-1.98.36-2.87.9-.13.08-.26.15-.36.26-.07.09-.14.18-.21.27.02-.03.04-.06.06-.09-.28.19-.44.51-.43.84,0,.32.17.59.45.74.34.19.66.1,1,0h-.52c.29.05.49.06.78,0,.01,0,.28-.07.1-.03-.17.04.28-.03.33-.04.06,0,.37-.04.04,0,.06,0,.12-.01.18-.02.16-.02.31-.04.47-.05.68-.05,1.36-.08,2.05-.11.63-.02,1.28-.03,1.92,0,.27.01.54.02.81.03.15,0,.09.03-.02,0,.06.02.11.03.17.04.11.03.22.07.33.11.44.17.97-.15,1.13-.56.18-.44.03-.95-.39-1.2h0Z"/><path class="cls-11" d="M244.86,158.75c.95-1.91,2.68-3.31,4.67-4.21-1.73-.18-9.92-.93-11.98.24-2.31,1.31.43,6.59,5.21,6.85.5.03.96-.01,1.4-.08.04-.96.26-1.92.7-2.8Z"/><path class="cls-8" d="M207.05,147.64s.83,3.21,5.59,6.93c4.76,3.72,11.66,6.45,11.66,6.45l.55-2.41s-7.14-3.1-10.45-6.52c-3.31-3.41-3.72-5.28-3.72-5.28l-3.62.83Z"/><path class="cls-11" d="M225.67,156.82c3.83-.18,5.97,2.85,6.23,4.81.27,1.96-1.57,4.16-5.88,2.23-5.35-2.4-4.19-6.86-.36-7.04Z"/><path class="cls-8" d="M210.05,123.95s1.65-11.89,9.62-19.97c15.21-15.41,28.14-14.48,28.14-14.48,0,0-.1-2.17-4.97-3.83-4.57-1.55-6.62-.72-6.62-.72,0,0-12.52,1.03-23.07,12.72-10.55,11.69-11.69,26.59-11.69,26.59l8.59-.31Z"/><path class="cls-4" d="M208.91,122.51c-9.96-1.69-15.52,6.1-15.93,13.97-.41,7.86,5.3,13.84,12.93,13.24,17.17-1.34,15.21-25.14,3-27.21Z"/><path class="cls-16" d="M203.95,142.07c-2.63,0-4.85-1.32-6.12-3.65-1.36-2.49-1.25-5.56.29-7.82.12-.17.35-.21.52-.1.17.12.22.35.1.52-1.38,2.03-1.48,4.79-.25,7.04,1.16,2.13,3.22,3.34,5.66,3.26,2.28-.06,4.21-1.1,5.43-2.93,1.4-2.09,1.72-4.97.82-7.35-.9-2.36-3.35-3.96-5.58-3.67-.2.03-.39-.12-.42-.32-.03-.2.12-.39.32-.42,2.61-.35,5.35,1.44,6.38,4.15.99,2.6.63,5.75-.9,8.03-1.37,2.04-3.51,3.2-6.03,3.26-.07,0-.14,0-.21,0Z"/><path class="cls-20" d="M196.7,174.54s-30.21,7.45-40.76,19.45-15.52,71.17-15.72,82.14,7.45,15.52,12,18.62c4.55,3.1,24.62,8.69,40.76,9.52,16.14.83,31.45,0,31.45,0,0,0-.05-3.52,2.43-8.69,2.3-4.8,5.22-5.79,5.22-5.79l-13.86-4.97s-2.43-43.49-6.21-64.55c-4.34-24.21-15.31-45.72-15.31-45.72Z"/><path class="cls-13" d="M246.77,277.87c-.07,0-.14-.01-.2-.04-.25-.11-.37-.41-.25-.66,2.83-6.39,5.76-18.92,7.41-27.72l.14-.71c.5-2.59,1.12-5.8-.12-8.03-.63-1.13-2.06-3.59-3.44-5.95-1.43-2.45-2.77-4.77-3.15-5.46-.73-1.35,1.57-4.96,4.89-9.91.9-1.34,1.67-2.49,2.12-3.27,1.18-2.05.4-3.92-.52-6.1l-.31-.75c-.83-2.03-1.77-4.06-2.68-6.03-.37-.8-.74-1.61-1.11-2.42-.49-1.07-.97-2.16-1.47-3.26-2.92-6.52-5.95-13.26-9.82-19.77-.14-.24-.06-.54.17-.69.24-.14.54-.06.69.17,3.9,6.56,6.94,13.33,9.87,19.87.49,1.1.98,2.19,1.46,3.25.37.81.74,1.61,1.11,2.41.91,1.98,1.86,4.02,2.69,6.07l.31.74c.93,2.21,1.89,4.51.46,6.98-.47.81-1.25,1.98-2.16,3.33-1.73,2.58-5.33,7.95-4.84,8.88.37.68,1.71,2.99,3.13,5.43,1.38,2.37,2.81,4.83,3.45,5.97,1.42,2.54.76,5.96.23,8.7l-.14.71c-.6,3.2-3.79,19.6-7.48,27.94-.08.19-.27.3-.46.3Z"/><path class="cls-13" d="M217.29,279.63c-.13,0-.26-.05-.35-.15-2.35-2.37-13.69-22-14.53-25.69-.46-2.02.7-7.15,1.82-12.11.87-3.84,1.77-7.81,1.51-8.89-.38-1.61-3.28-3.98-6.08-6.27-3.39-2.77-6.89-5.63-7.57-8.21-.77-2.93-.11-21.27.32-33.4.16-4.36.28-7.81.28-9.04,0-.28.22-.5.5-.5h0c.28,0,.5.22.5.5,0,1.25-.12,4.7-.28,9.07-.41,11.34-1.09,30.32-.36,33.11.6,2.26,4.12,5.14,7.23,7.68,3.07,2.51,5.96,4.87,6.42,6.81.31,1.3-.53,5.03-1.51,9.34-1.05,4.62-2.23,9.86-1.82,11.66.83,3.62,11.96,22.88,14.27,25.21.19.2.19.51,0,.71-.1.1-.22.15-.35.15Z"/><path class="cls-13" d="M176.63,271.04s-.05,0-.07,0c-.27-.04-.46-.29-.43-.57.37-2.6,6.11-54.4,6.37-58.37.02-.28.26-.49.53-.47.28.02.48.26.47.53-.26,3.97-6.01,55.84-6.38,58.44-.04.25-.25.43-.49.43Z"/><path class="cls-13" d="M217.8,285.11c-.06,0-.13-.01-.19-.04-1.27-.52-6.89-2.41-14-4.81-14.36-4.84-34.02-11.47-37.76-13.42-.25-.13-.34-.43-.21-.67.13-.25.43-.34.67-.21,3.67,1.91,24.1,8.8,37.62,13.36,7.13,2.41,12.76,4.3,14.06,4.83.26.1.38.4.28.65-.08.19-.27.31-.46.31Z"/><path class="cls-13" d="M210.9,305.73c-12.64,0-37.13-2.28-55.74-8.86-.26-.09-.4-.38-.3-.64.09-.26.38-.4.64-.3,23.51,8.32,56.4,9.74,62.52,8.36.27-.06.54.11.6.38.06.27-.11.54-.38.6-1.32.3-3.89.46-7.32.46Z"/><polygon class="cls-1" points="433.49 232.89 393.94 311.23 278.63 312.06 314.22 231.78 433.49 232.89"/><path class="cls-10" d="M202.1,311.57l.02-6.27h74.65l34.34-75.31h119.38s3,2.9,3,2.9h-116.62l-35.69,78.62s-79.08-.14-79.08.06Z"/><path class="cls-10" d="M373.62,276.12c-1.3,3.91-8.37,6.93-15.79,6.74s-12.38-3.5-11.07-7.41c1.3-3.91,8.37-6.93,15.79-6.74,7.42.19,12.38,3.5,11.07,7.41Z"/><path class="cls-4" d="M281.18,312.01c-.07,0-.14-.01-.21-.04-.25-.11-.36-.41-.25-.66l35.82-78.91h116.94c.28,0,.5.22.5.5,0,.28-.22.5-.5.5h-116.3l-35.56,78.33c-.08.18-.27.29-.46.29Z"/><rect class="cls-5" x="59.74" y="317.51" width="137.17" height="30.41"/><rect class="cls-7" x="196.12" y="317.51" width="246.8" height="30.41"/><polygon class="cls-3" points="196.91 317.51 196.12 317.51 59.74 317.51 59.74 323.09 196.12 323.09 196.91 323.09 442.92 323.09 442.92 317.51 196.91 317.51"/><rect class="cls-6" x="53.11" y="311.51" width="149.79" height="7.45"/><rect class="cls-5" x="202.12" y="311.51" width="246.8" height="7.45"/><rect class="cls-4" x="108.43" y="116.91" width="59.28" height="35.03" rx="5.43" ry="5.43"/><polygon class="cls-4" points="181.5 134.42 163.31 126.75 163.31 142.1 181.5 134.42"/><path class="cls-14" d="M129.93,134.42c0,1.85-1.5,3.35-3.35,3.35s-3.35-1.5-3.35-3.35,1.5-3.35,3.35-3.35,3.35,1.5,3.35,3.35Z"/><path class="cls-14" d="M141.41,134.42c0,1.85-1.5,3.35-3.35,3.35s-3.35-1.5-3.35-3.35,1.5-3.35,3.35-3.35,3.35,1.5,3.35,3.35Z"/><circle class="cls-14" cx="149.55" cy="134.42" r="3.35"/><path class="cls-7" d="M408.8,42.54h-111.79c-7.18,0-13,5.82-13,13v53.03c0,7.18,5.82,13,13,13h10.02c.28,4.81-.41,11.96-4.42,21.1,12.92-5.96,20.35-14.9,24.24-21.1h81.96c7.18,0,13-5.82,13-13v-53.03c0-7.18-5.82-13-13-13Z"/><path class="cls-4" d="M361.11,67.82h-55.45c-1.52,0-2.76-1.24-2.76-2.76h0c0-1.52,1.24-2.76,2.76-2.76h55.45c1.52,0,2.76,1.23,2.76,2.76h0c0,1.52-1.23,2.76-2.76,2.76Z"/><path class="cls-4" d="M400.87,83.89h-96.28c-.93,0-1.69-.76-1.69-1.69h0c0-.93.76-1.69,1.69-1.69h96.28c.93,0,1.69.76,1.69,1.69h0c0,.93-.76,1.69-1.69,1.69Z"/><path class="cls-4" d="M400.87,93.26h-96.28c-.93,0-1.69-.76-1.69-1.69h0c0-.93.76-1.69,1.69-1.69h96.28c.93,0,1.69.76,1.69,1.69h0c0,.93-.76,1.69-1.69,1.69Z"/><path class="cls-4" d="M379.87,103.26h-75.27c-.93,0-1.69-.76-1.69-1.69h0c0-.93.76-1.69,1.69-1.69h75.27c.93,0,1.69.76,1.69,1.69h0c0,.93-.76,1.69-1.69,1.69Z"/><path class="cls-4" d="M400.12,67.82h-26.45c-1.52,0-2.76-1.24-2.76-2.76h0c0-1.52,1.24-2.76,2.76-2.76h26.45c1.52,0,2.76,1.23,2.76,2.76h0c0,1.52-1.24,2.76-2.76,2.76Z"/><rect class="cls-4" x="301.42" y="165.26" width="34.03" height="24.52" rx="2" ry="2"/><path class="cls-19" d="M318.64,181.19c-.17,0-.34-.06-.48-.17l-16.35-13.5c-.32-.26-.36-.74-.1-1.06.27-.32.74-.36,1.06-.1l15.86,13.1,15.45-13.44c.31-.27.79-.24,1.06.07.27.31.24.79-.07,1.06l-15.93,13.86c-.14.12-.32.18-.49.18Z"/><path class="cls-19" d="M302.3,189.22c-.19,0-.37-.07-.52-.21-.3-.29-.31-.76-.03-1.06l11.43-12.02c.28-.3.76-.31,1.06-.03.3.29.31.76.03,1.06l-11.43,12.02c-.15.15-.34.23-.54.23Z"/><path class="cls-19" d="M334.57,188.78c-.19,0-.38-.07-.53-.22l-11.39-11.42c-.29-.29-.29-.77,0-1.06.29-.29.77-.29,1.06,0l11.39,11.42c.29.29.29.77,0,1.06-.15.15-.34.22-.53.22Z"/><circle class="cls-14" cx="337.01" cy="164.51" r="10.03"/><text class="cls-23" transform="translate(329.96 168.74)"><tspan x="0" y="0">85</tspan></text></g></g></svg>